<?xml version="1.0" encoding="UTF-8" standalone="no"?>
<!-- Generator: Adobe Illustrator 19.0.0, SVG Export Plug-In . SVG Version: 6.00 Build 0)  -->

<svg xmlns:dc="http://purl.org/dc/elements/1.1/" xmlns:cc="http://creativecommons.org/ns#" xmlns:rdf="http://www.w3.org/1999/02/22-rdf-syntax-ns#" xmlns:svg="http://www.w3.org/2000/svg" xmlns="http://www.w3.org/2000/svg" xmlns:sodipodi="http://sodipodi.sourceforge.net/DTD/sodipodi-0.dtd" xmlns:inkscape="http://www.inkscape.org/namespaces/inkscape" version="1.1" id="Capa_1" x="0px" y="0px" viewBox="0 0 42.235453 52.090392" xml:space="preserve" inkscape:version="0.48.4 r9939" width="100%" height="100%" sodipodi:docname="hotel.svg"><metadata id="metadata61"><rdf:RDF><cc:Work rdf:about=""><dc:format>image/svg+xml</dc:format><dc:type rdf:resource="http://purl.org/dc/dcmitype/StillImage" /><dc:title></dc:title></cc:Work></rdf:RDF></metadata><defs id="defs59" /><sodipodi:namedview pagecolor="#ffffff" bordercolor="#666666" borderopacity="1" objecttolerance="10" gridtolerance="10" guidetolerance="10" inkscape:pageopacity="0" inkscape:pageshadow="2" inkscape:window-width="1600" inkscape:window-height="848" id="namedview57" showgrid="false" fit-margin-top="0" fit-margin-left="0" fit-margin-right="0" fit-margin-bottom="0" inkscape:zoom="1" inkscape:cx="21.117727" inkscape:cy="26.045195" inkscape:window-x="0" inkscape:window-y="0" inkscape:window-maximized="1" inkscape:current-layer="Capa_1" /><g id="XMLID_6_" transform="matrix(0.14078485,0,0,0.14078485,-4.9274708,0)"><path id="XMLID_2245_" style="fill:#64c37d" d="M 80,301.458 C 65.544,305.762 55,319.146 55,335 c 0,1.698 0.127,3.366 0.361,5 H 50 c -8.284,0 -15,6.716 -15,15 0,8.284 6.716,15 15,15 h 30 v -68.542 z" inkscape:connector-curvature="0" /><path id="XMLID_2246_" style="fill:#64c37d" d="m 320,340 h -5.361 c 0.234,-1.634 0.361,-3.302 0.361,-5 0,-15.854 -10.544,-29.238 -25,-33.542 V 370 h 30 c 8.284,0 15,-6.716 15,-15 0,-8.284 -6.716,-15 -15,-15 z" inkscape:connector-curvature="0" /><path id="XMLID_2247_" style="fill:#ffd6a0" d="m 125,320 h -20 l 35,-40 h 45 V 40 H 151.611 80 v 60 h 30 v 60 H 80 v 30 h 30 v 60 H 80 v 120 h 45 v -50 z m 15,-220 h 30 v 60 h -30 v -60 z m 0,90 h 30 v 60 h -30 v -60 z" inkscape:connector-curvature="0" /><path id="XMLID_2251_" style="fill:#ffc170" d="m 290,250 h -30 v -60 h 30 v -30 h -30 v -60 h 30 V 40 H 185 v 240 h 45 l 35,40 h -20 v 50 h 45 V 250 z m -60,0 h -30 v -60 h 30 v 60 z m 0,-90 h -30 v -60 h 30 v 60 z" inkscape:connector-curvature="0" /><rect id="XMLID_2255_" x="155" y="320" style="fill:#818085" width="30" height="50" /><rect id="XMLID_2256_" x="185" y="320" style="fill:#565659" width="30" height="50" /><rect id="XMLID_2257_" x="125" y="320" style="fill:#ffffff" width="30" height="50" /><rect id="XMLID_2258_" x="215" y="320" style="fill:#ffffff" width="30" height="50" /><rect id="XMLID_2259_" x="80" y="100" style="fill:#ffffff" width="30" height="60" /><rect id="XMLID_2260_" x="140" y="100" style="fill:#ffffff" width="30" height="60" /><rect id="XMLID_2261_" x="200" y="100" style="fill:#ffffff" width="30" height="60" /><rect id="XMLID_2262_" x="260" y="100" style="fill:#ffffff" width="30" height="60" /><rect id="XMLID_2263_" x="80" y="190" style="fill:#ffffff" width="30" height="60" /><rect id="XMLID_2264_" x="140" y="190" style="fill:#ffffff" width="30" height="60" /><rect id="XMLID_2265_" x="200" y="190" style="fill:#ffffff" width="30" height="60" /><rect id="XMLID_2266_" x="260" y="190" style="fill:#ffffff" width="30" height="60" /><polygon id="XMLID_2267_" style="fill:#565659" points="89.388,0.222 89.388,39.667 100.222,39.667 100.222,24.222 113.444,24.222 113.444,39.667 124.278,39.667 124.278,0.222 113.444,0.222 113.444,14.777 100.222,14.777 100.222,0.222 " /><path id="XMLID_2268_" style="fill:#565659" d="m 166.056,33.917 c 1.778,-1.832 3.167,-3.945 4.167,-6.334 1,-2.39 1.5,-4.879 1.5,-7.473 0,-2.518 -0.473,-4.98 -1.417,-7.389 -0.945,-2.407 -2.288,-4.556 -4.028,-6.444 C 164.537,4.388 162.445,2.87 160,1.722 157.555,0.574 154.833,0 151.833,0 c -2.926,0 -5.62,0.547 -8.083,1.639 -2.464,1.093 -4.593,2.556 -6.389,4.39 -1.797,1.833 -3.194,3.953 -4.194,6.36 -1.001,2.408 -1.501,4.908 -1.501,7.5 0,2.556 0.481,5.037 1.444,7.444 0.963,2.408 2.314,4.548 4.056,6.417 1.741,1.87 3.833,3.38 6.278,4.527 2.444,1.148 5.167,1.723 8.167,1.723 2.925,0 5.62,-0.556 8.083,-1.667 2.463,-1.111 4.584,-2.583 6.362,-4.416 z m -10.279,-4.444 c -1.148,0.612 -2.5,0.916 -4.055,0.916 -1.556,0 -2.899,-0.296 -4.028,-0.889 -1.13,-0.592 -2.064,-1.37 -2.806,-2.333 -0.741,-0.963 -1.297,-2.064 -1.666,-3.307 -0.371,-1.24 -0.556,-2.527 -0.556,-3.86 0,-1.297 0.175,-2.565 0.528,-3.807 0.352,-1.239 0.898,-2.351 1.639,-3.333 0.74,-0.981 1.675,-1.769 2.806,-2.361 1.129,-0.592 2.472,-0.889 4.027,-0.889 1.519,0 2.843,0.288 3.973,0.861 1.129,0.575 2.073,1.334 2.833,2.278 0.759,0.943 1.324,2.036 1.695,3.277 0.37,1.242 0.556,2.528 0.556,3.861 0,1.298 -0.176,2.574 -0.528,3.834 -0.352,1.259 -0.889,2.38 -1.611,3.36 -0.723,0.984 -1.659,1.78 -2.807,2.392 z" inkscape:connector-curvature="0" /><polygon id="XMLID_2271_" style="fill:#565659" points="197.89,39.667 197.89,9.667 209.224,9.667 209.224,0.222 175.668,0.222 175.668,9.667 187.057,9.667 187.057,39.667 " /><polygon id="XMLID_2272_" style="fill:#565659" points="215.945,0.222 215.945,39.667 244.057,39.667 244.057,30.222 226.779,30.222 226.779,24 241.112,24 241.112,15.222 226.779,15.222 226.779,9.667 243.557,9.667 243.557,0.222 " /><polygon id="XMLID_2273_" style="fill:#565659" points="251.889,0.222 251.889,39.667 280.612,39.667 280.612,30.222 262.723,30.222 262.723,0.222 " /><polygon id="XMLID_2274_" style="fill:#ff5023" points="185,320 185,280 140,280 105,320 125,320 155,320 " /><polygon id="XMLID_2275_" style="fill:#bf3c1a" points="265,320 230,280 185,280 185,320 215,320 245,320 " /></g><g id="g27" transform="translate(-163.88227,-158.9548)" /><g id="g29" transform="translate(-163.88227,-158.9548)" /><g id="g31" transform="translate(-163.88227,-158.9548)" /><g id="g33" transform="translate(-163.88227,-158.9548)" /><g id="g35" transform="translate(-163.88227,-158.9548)" /><g id="g37" transform="translate(-163.88227,-158.9548)" /><g id="g39" transform="translate(-163.88227,-158.9548)" /><g id="g41" transform="translate(-163.88227,-158.9548)" /><g id="g43" transform="translate(-163.88227,-158.9548)" /><g id="g45" transform="translate(-163.88227,-158.9548)" /><g id="g47" transform="translate(-163.88227,-158.9548)" /><g id="g49" transform="translate(-163.88227,-158.9548)" /><g id="g51" transform="translate(-163.88227,-158.9548)" /><g id="g53" transform="translate(-163.88227,-158.9548)" /><g id="g55" transform="translate(-163.88227,-158.9548)" /></svg>