<?xml version="1.0" encoding="UTF-8" standalone="no"?>
<!-- Created with Inkscape (http://www.inkscape.org/) -->

<svg xmlns:dc="http://purl.org/dc/elements/1.1/" xmlns:cc="http://creativecommons.org/ns#" xmlns:rdf="http://www.w3.org/1999/02/22-rdf-syntax-ns#" xmlns:svg="http://www.w3.org/2000/svg" xmlns="http://www.w3.org/2000/svg" version="1.1" width="40px" height="45px" viewBox="0 0 40.431111 46.12337" id="Capa_1" xml:space="preserve"><metadata id="metadata153"><rdf:RDF><cc:Work rdf:about=""><dc:format>image/svg+xml</dc:format><dc:type rdf:resource="http://purl.org/dc/dcmitype/StillImage" /><dc:title></dc:title></cc:Work></rdf:RDF></metadata><defs id="defs151" /><g transform="matrix(0.23995344,0,0,0.23995344,-2.8455023,0)" id="g3"><g id="g5"><polygon points="142.807,43.364 139.868,59.515 150.065,60.765 153.003,44.613 " id="polygon7" style="fill:#c79369;fill-rule:evenodd" /><path d="M 42.867,16.54 C 67.057,10.449 94.354,35.229 105.489,72.504 95.45,85.526 81.076,95.42 63.821,99.765 46.567,104.11 29.221,102.202 14.214,95.486 6.369,57.383 18.676,22.631 42.867,16.54 z" id="path9" style="fill:#d9eced;fill-rule:evenodd" /><path d="m 75.618,72.693 c 4.62,-1.206 14.358,-5.043 17.962,-8.06 l 2.035,3.481 C 92.585,72 82.841,77.31 78.458,79.754 l -2.84,-7.061 z" id="path11" style="fill:#e7b791;fill-rule:evenodd" /><path d="m 61.695,68.729 c 5.153,1.444 11.526,2.63 18.295,3.255 l -0.798,7.444 C 72.898,79.781 67.202,79.644 63.414,79.042 52.816,77.36 50.42,65.568 61.695,68.729 z" id="path13" style="fill:#e7b791;fill-rule:evenodd" /><path d="m 91.03,63.271 c 0.658,-1.295 1.477,-1.362 2.172,-0.606 0.722,-2.026 2.817,-2.923 3.824,-2.411 1.959,0.995 2.451,3.96 1.099,6.621 -1.353,2.662 -4.036,4.013 -5.996,3.018 -1.959,-0.996 -2.451,-3.96 -1.099,-6.622 z" id="path15" style="fill:#e7b791;fill-rule:evenodd" /><rect width="11.633" height="16.416" x="50.657001" y="59.490002" transform="matrix(-0.968,0.2509,-0.2509,-0.968,128.1275,119.0598)" id="rect17" style="fill:#c79369;fill-rule:evenodd" /><path d="M 62.296,105.684 53.023,85.807 51.215,70.591 c 3.843,-0.349 7.594,-1.342 11.261,-2.918 2.957,0.66 7.304,6.845 8.068,12.755 l 3.331,22.255 -11.579,3.001 z" id="path19" style="fill:#e7b791;fill-rule:evenodd" /><path d="m 70.589,101.248 c 24.945,0 45.366,30.695 47.062,69.56 -12.914,10.177 -29.269,16.262 -47.062,16.262 -17.793,0 -29.428,-8.23 -42.341,-18.407 1.695,-38.865 17.396,-67.415 42.341,-67.415 z" id="path21" style="fill:#f5f0f0;fill-rule:evenodd" /><path d="m 53.023,85.807 c 1.392,-0.335 9.265,-11.864 15.74,-11.179 0.869,1.82 1.524,3.825 1.78,5.8 l 3.298,22.029 0.033,0.226 -11.579,3.001 -9.272,-19.877 z" id="path23" style="fill:#f5f0f0;fill-rule:evenodd" /><path d="m 62.975,76.206 c 9.295,8.038 24.634,17.502 39.36,21.626 l -1.217,4.013 C 86.885,99.835 67.839,92.21 59.974,86.862 50.58,80.473 53.599,68.097 62.975,76.206 z" id="path25" style="fill:#e7b791;fill-rule:evenodd" /><path d="m 74.49,192.218 c 4.62,0 8.388,-1.893 8.388,-4.213 0,-2.319 -3.768,-4.212 -8.388,-4.212 -4.619,0 -8.387,1.893 -8.387,4.212 0.001,2.32 3.768,4.213 8.387,4.213 z" id="path27" style="fill:#f5f0f0;fill-rule:evenodd" /><g id="g29"><path d="m 127.086,186.817 -2.566,-55.118 -0.018,-12.87 -0.013,-4.289 h 14.801 c -1.082,24.093 -2.165,48.184 -3.247,72.277 -2.986,0 -5.973,0 -8.957,0 z" id="path31" style="fill:#323232;fill-rule:evenodd" /><polygon points="124.501,118.829 124.488,114.54 124.694,114.54 124.501,118.831 " id="polygon33" style="fill:#323232;fill-rule:evenodd" /></g><path d="m 126.845,192.218 c 5.065,0 9.197,-2.075 9.197,-4.619 0,-2.544 -4.132,-4.619 -9.197,-4.619 -5.065,0 -9.196,2.075 -9.196,4.619 -0.001,2.544 4.13,4.619 9.196,4.619 z" id="path35" style="fill:#1a1a1a;fill-rule:evenodd" /><path d="m 123.789,69.206 c -5.521,-0.494 -16.764,-4.198 -21.469,-6.96 l -1.662,4.376 c 4.216,3.867 15.746,9.256 21.233,11.213 l 1.898,-8.629 z" id="path37" style="fill:#1a1a1a;fill-rule:evenodd" /><path d="m 140.004,63.063 c -5.759,2.332 -12.958,4.524 -20.687,6.12 l 1.882,8.484 c 7.307,-0.406 13.86,-1.3 18.152,-2.482 12.01,-3.31 13.252,-17.224 0.653,-12.122 z" id="path39" style="fill:#1a1a1a;fill-rule:evenodd" /><path d="m 102.724,60.413 c -1.331,-1.033 -2.224,-0.699 -2.58,0.44 -1.762,-1.771 -4.405,-1.674 -5.21,-0.639 -1.563,2.016 -0.612,5.371 2.126,7.497 2.737,2.125 6.225,2.215 7.789,0.199 1.564,-2.015 0.613,-5.371 -2.125,-7.497 z" id="path41" style="fill:#e7b791;fill-rule:evenodd" /><path d="m 106.323,96.788 c 1.358,0.72 1.415,1.587 0.602,2.31 2.132,0.802 3.042,3.036 2.481,4.093 -1.09,2.055 -4.236,2.522 -7.028,1.041 -2.793,-1.48 -4.174,-4.347 -3.084,-6.402 1.09,-2.057 4.236,-2.522 7.029,-1.042 z" id="path43" style="fill:#e7b791;fill-rule:evenodd" /><polygon points="138.877,63.977 140.652,53.995 151.24,55.51 150.439,61.107 " id="polygon45" style="fill:#f5f0f0;fill-rule:evenodd" /><polygon points="121.635,117.531 122.327,112.566 146.868,116.076 146.48,121.085 " id="polygon47" style="fill:#1a1a1a;fill-rule:evenodd" /><polygon points="121.859,115.763 146.611,119.419 150.971,57.662 142.723,58.286 126.697,87.02 " id="polygon49" style="fill:#323232;fill-rule:evenodd" /><path d="m 141.539,55.326 c -3.98,18.962 -4.857,28.249 -14.379,33.752 l 1.149,-8.203 10.411,-19.682 1.933,-7.198 0.886,1.331 z" id="path51" style="fill:#f5f0f0;fill-rule:evenodd" /><path d="m 141.619,52.967 -1.692,12.369 -0.836,1.848 -8.241,17.327 -5.694,9.088 2.931,-13.361 10.634,-19.044 1.501,-6.259 c 0.229,-0.952 0.123,-4.76 0.123,-4.76 l 1.274,2.792 z" id="path53" style="fill:#323232;fill-rule:evenodd" /><path d="m 139.443,64.877 c -7.162,11.414 -20.203,26.266 -34.317,35.32 l 2.564,3.816 c 14.277,-6.681 31.795,-20.794 38.323,-28.929 7.797,-9.716 0.655,-21.721 -6.57,-10.207 z" id="path55" style="fill:#1a1a1a;fill-rule:evenodd" /><path d="m 104.561,96.746 c -1.381,0.967 -1.325,1.918 -0.343,2.595 -2.212,1.16 -2.901,3.714 -2.149,4.788 1.462,2.09 4.95,2.173 7.789,0.186 2.84,-1.987 3.956,-5.292 2.494,-7.383 -1.463,-2.09 -4.952,-2.173 -7.791,-0.186 z" id="path57" style="fill:#e7b791;fill-rule:evenodd" /><g id="g59"><path d="m 154.549,185.254 -20.446,-51.25 -4.226,-12.156 -1.414,-4.05 13.987,-4.839 c 6.854,23.122 13.708,46.244 20.563,69.367 -2.821,0.976 -5.643,1.952 -8.464,2.928 z" id="path61" style="fill:#323232;fill-rule:evenodd" /><polygon points="129.877,121.848 128.463,117.798 128.657,117.73 129.878,121.85 " id="polygon63" style="fill:#323232;fill-rule:evenodd" /></g><ellipse cx="154.577" cy="186.071" rx="4.619" ry="9.1969995" transform="matrix(-0.327,-0.945,0.945,-0.327,29.2796,392.9934)" id="ellipse65" style="fill:#1a1a1a;fill-rule:evenodd" /><ellipse cx="47.029999" cy="183.715" rx="4.2129998" ry="8.3870001" transform="matrix(0.3481,-0.9375,0.9375,0.3481,-141.5662,163.8561)" id="ellipse67" style="fill:#f5f0f0;fill-rule:evenodd" /><g id="g69"><ellipse cx="176.242" cy="38.110001" rx="5.7800002" ry="3.6989999" transform="matrix(0.4068,-0.9135,0.9135,0.4068,69.7285,183.6045)" id="ellipse71" style="fill:#e7b791;fill-rule:evenodd" /><ellipse cx="123.684" cy="25.454" rx="5.7810001" ry="3.6989999" transform="matrix(-0.0363,-0.9993,0.9993,-0.0363,102.7389,149.9801)" id="ellipse73" style="fill:#e7b791;fill-rule:evenodd" /><ellipse cx="149.05099" cy="34.129002" rx="20.796" ry="26.979" transform="matrix(0.1902,-0.9817,0.9817,0.1902,87.1974,173.969)" id="ellipse75" style="fill:#e7b791;fill-rule:evenodd" /><ellipse cx="141.381" cy="30.597" rx="2.6240001" ry="1.499" transform="matrix(0.1902,-0.9817,0.9817,0.1902,84.4548,163.5784)" id="ellipse77" style="fill:#323232;fill-rule:evenodd" /><ellipse cx="157.48399" cy="33.716" rx="2.6240001" ry="1.499" transform="matrix(0.1902,-0.9817,0.9817,0.1902,94.4271,181.9119)" id="ellipse79" style="fill:#323232;fill-rule:evenodd" /><path d="m 172.931,19.088 c -13.024,-3.085 -38.182,13.643 -50.558,5.591 5.658,-15.662 24.02,-21.512 37.684,-16.426 5.044,1.876 9.483,4.45 12.874,10.835 z" id="path81" style="fill:#5e3a1d;fill-rule:evenodd" /><path d="m 164.05,11.641 c -4.798,10.628 3.711,25.086 12.192,26.469 3.146,-8.926 -2.771,-22.902 -12.192,-26.469 z" id="path83" style="fill:#5e3a1d;fill-rule:evenodd" /><path d="m 156.321,43.411 c -3.952,0 -13.266,-1.872 -17.482,-3.387 3.444,6.259 12.822,8.271 17.482,3.387 z" id="path85" style="fill:#c79369;fill-rule:evenodd" /><path d="m 172.839,19.56 c -17.68,-7.8 -47.153,10.951 -50.322,-11.739 8.51,5.233 10.184,2.012 19.772,-0.934 9.672,-2.972 23.011,-1.526 30.55,12.673 z" id="path87" style="fill:#5e3a1d;fill-rule:evenodd" /><path d="M 174.265,24.602 C 159.27,12.413 125.893,22.723 128.823,0 c 6.827,7.293 9.292,4.628 19.318,4.316 10.113,-0.314 22.598,4.601 26.124,20.286 z" id="path89" style="fill:#5e3a1d;fill-rule:evenodd" /></g><g id="g91"><ellipse cx="46.841" cy="33.000999" rx="15.363" ry="15.517" transform="matrix(-0.2652,-0.9642,0.9642,-0.2652,27.4434,86.9165)" id="ellipse93" style="fill:#5e3a1d;fill-rule:evenodd" /><ellipse cx="47.737999" cy="36.261002" rx="11.981" ry="17.540001" transform="matrix(-0.2652,-0.9642,0.9642,-0.2652,25.4351,91.9061)" id="ellipse95" style="fill:#f5f0f0;fill-rule:evenodd" /><ellipse cx="48.029999" cy="37.323002" rx="10.88" ry="19.507999" transform="matrix(-0.2652,-0.9642,0.9642,-0.2652,24.7809,93.5307)" id="ellipse97" style="fill:#5e3a1d;fill-rule:evenodd" /><ellipse cx="51.053001" cy="48.794998" rx="19.555" ry="22.062" transform="matrix(-0.2652,-0.9642,0.9642,-0.2652,17.5442,110.9603)" id="ellipse99" style="fill:#e7b791;fill-rule:evenodd" /><g id="g101"><ellipse cx="58.34" cy="46.209" rx="2.467" ry="1.409" transform="matrix(-0.2652,-0.9642,0.9642,-0.2652,29.2611,114.7157)" id="ellipse103" style="fill:#323232;fill-rule:evenodd" /><ellipse cx="43.469002" cy="50.299" rx="2.467" ry="1.41" transform="matrix(-0.2651,-0.9642,0.9642,-0.2651,6.4928,105.5464)" id="ellipse105" style="fill:#323232;fill-rule:evenodd" /></g><path d="m 61.565,53.555 c -3.531,1.748 -12.677,4.195 -17.112,4.707 5.844,4.067 15.11,1.716 17.112,-4.707 z" id="path107" style="fill:#c79369;fill-rule:evenodd" /><ellipse cx="29.438" cy="54.740002" rx="5.7610002" ry="3.687" transform="matrix(-0.476,-0.8794,0.8794,-0.476,-4.6912,106.6855)" id="ellipse109" style="fill:#e7b791;fill-rule:evenodd" /><ellipse cx="72.564003" cy="43.154999" rx="5.7610002" ry="3.687" transform="matrix(-0.0408,-0.9992,0.9992,-0.0408,32.4031,117.4178)" id="ellipse111" style="fill:#e7b791;fill-rule:evenodd" /><g id="g113"><path d="M 50.418,27.82 C 62.393,31.104 70.504,45.648 76.206,42.052 72.165,29.776 58.548,23.654 50.418,27.82 z" id="path115" style="fill:#5e3a1d;fill-rule:evenodd" /><path d="M 62.125,27.505 C 44.94,31.241 40.785,57.122 25.564,55.17 21.797,36.275 40.678,22.316 62.125,27.505 z" id="path117" style="fill:#5e3a1d;fill-rule:evenodd" /></g></g></g></g><g transform="translate(1.9876516,-83.077271)" id="g119" /><g transform="translate(1.9876516,-83.077271)" id="g121" /><g transform="translate(1.9876516,-83.077271)" id="g123" /><g transform="translate(1.9876516,-83.077271)" id="g125" /><g transform="translate(1.9876516,-83.077271)" id="g127" /><g transform="translate(1.9876516,-83.077271)" id="g129" /><g transform="translate(1.9876516,-83.077271)" id="g131" /><g transform="translate(1.9876516,-83.077271)" id="g133" /><g transform="translate(1.9876516,-83.077271)" id="g135" /><g transform="translate(1.9876516,-83.077271)" id="g137" /><g transform="translate(1.9876516,-83.077271)" id="g139" /><g transform="translate(1.9876516,-83.077271)" id="g141" /><g transform="translate(1.9876516,-83.077271)" id="g143" /><g transform="translate(1.9876516,-83.077271)" id="g145" /><g transform="translate(1.9876516,-83.077271)" id="g147" /></svg>